<svg width="73" height="72" viewBox="0 0 73 72" fill="none" xmlns="http://www.w3.org/2000/svg">
<circle cx="36.75" cy="36" r="35" fill="white" stroke="#DBDBDB" stroke-width="2"/>
<path fill-rule="evenodd" clip-rule="evenodd" d="M58.816 46.7775C58.816 46.0782 58.777 45.4959 58.4276 45.146C58.2327 44.9518 57.974 44.8481 57.6364 44.8481C57.2992 44.8481 57.053 44.9518 56.859 45.146C56.5088 45.4959 56.4697 46.0782 56.4697 46.7775C56.4697 47.4764 56.5088 48.0721 56.859 48.4216C57.053 48.6158 57.2992 48.7194 57.6364 48.7194C57.974 48.7194 58.2327 48.6158 58.4276 48.4216C58.777 48.0721 58.816 47.4764 58.816 46.7775ZM60.5009 46.7775C60.5009 48.0075 60.3451 48.7711 59.7358 49.4054C59.3209 49.8459 58.6346 50.2339 57.636 50.2339C56.6377 50.2339 55.9641 49.8459 55.5496 49.4054C54.9402 48.7711 54.7853 48.0075 54.7853 46.7775C54.7853 45.5605 54.9402 44.7966 55.5496 44.1622C55.9641 43.7222 56.6377 43.3337 57.636 43.3337C58.6346 43.3337 59.3209 43.7222 59.7358 44.1622C60.3451 44.7966 60.5009 45.5605 60.5009 46.7775ZM52.1806 46.1562C52.1676 45.8583 52.129 45.6771 52.0256 45.4313C51.8434 45.0298 51.468 44.7319 50.8972 44.7319C50.3277 44.7319 49.9519 45.0298 49.7701 45.4313C49.6667 45.6771 49.6277 45.8583 49.6143 46.1562H52.1806ZM53.8391 46.5573V47.3082H49.6139C49.6139 48.1758 50.1455 48.8101 51.0917 48.8101C51.8304 48.8101 52.1937 48.6028 52.6208 48.1758L53.6451 49.1725C52.958 49.8589 52.297 50.2339 51.0787 50.2339C49.4845 50.2339 47.955 49.509 47.955 46.7775C47.955 44.5763 49.1473 43.3337 50.8969 43.3337C52.7766 43.3337 53.8391 44.7059 53.8391 46.5573ZM45.0389 46.7775C45.0389 45.6771 44.8966 44.8481 43.8853 44.8481C42.8745 44.8481 42.7451 45.6771 42.7451 46.7775C42.7451 47.8779 42.8745 48.7194 43.8853 48.7194C44.8966 48.7194 45.0389 47.8779 45.0389 46.7775ZM45.0392 40.9387H46.7241V50.1563H45.0783V49.522C44.6117 50.0401 44.1191 50.2339 43.4064 50.2339C42.7454 50.2339 42.1234 50.0011 41.7476 49.6256C41.0739 48.9527 41.0605 47.7873 41.0605 46.7775C41.0605 45.7677 41.0739 44.6153 41.7476 43.942C42.1234 43.5669 42.7328 43.3337 43.393 43.3337C44.08 43.3337 44.5991 43.5149 45.0392 44.007V40.9387ZM38.9477 40.4596C38.3648 40.4596 37.8856 40.9257 37.8856 41.5084C37.8856 42.0907 38.3648 42.5698 38.9477 42.5698C39.531 42.5698 39.998 42.0907 39.998 41.5084C39.998 40.9257 39.531 40.4596 38.9477 40.4596ZM38.1057 50.1563H39.791V43.4113H38.1057V50.1563ZM35.656 43.4113H37.432L34.9564 50.1563H33.6352L31.1465 43.4113H32.9217L34.2954 47.5801L35.656 43.4113Z" fill="black"/>
<path fill-rule="evenodd" clip-rule="evenodd" d="M42.8842 29.7565L42.0113 29.9966C41.4032 30.2364 40.8589 30.6504 40.4 31.2803V30.1262L38.2449 30.1059V39.1671H40.4875V34.8326C40.4875 34.091 40.5754 33.5692 40.7722 33.2413C40.9227 32.8943 41.2063 32.6107 41.5557 32.3713C41.947 32.1088 42.3603 31.978 42.7972 31.978L43.4928 32.0231L43.472 29.7122L42.8842 29.7565ZM25.333 39.1663H27.5976V27.361H25.333V39.1663ZM34.3479 34.5497L33.9131 34.7871L32.781 35.0707C32.301 35.1361 31.9317 35.245 31.7136 35.3754C31.3447 35.6152 31.1689 35.9435 31.1689 36.4003C31.1689 36.8139 31.2796 37.0959 31.4964 37.2934C31.7136 37.4657 31.9756 37.5535 32.301 37.5535C32.8241 37.5535 33.2814 37.4007 33.7174 37.0959C34.1303 36.7912 34.3479 36.2463 34.3479 35.4636V34.5497ZM36.7229 32.5005V39.1667H34.4559V38.2292C33.7591 38.8392 32.7804 39.1443 31.5401 39.1667C30.7762 39.1443 30.1453 38.9277 29.6877 38.5348C29.1666 38.0557 28.9058 37.4007 28.927 36.5973C28.9058 35.4409 29.3179 34.6359 30.1664 34.1349C30.6688 33.8504 31.3209 33.6558 32.1259 33.5457L33.8689 33.2641C34.2159 33.1121 34.3908 32.8703 34.3908 32.5668C34.3689 32.1966 34.2599 31.9345 33.9991 31.804C33.7388 31.6508 33.3686 31.5627 32.8902 31.5858C32.3228 31.5627 31.931 31.7167 31.6919 32.0231C31.5401 32.1966 31.4083 32.4587 31.3656 32.8504H29.1003C29.1666 32.0231 29.3626 31.3676 29.7535 30.8674C30.3633 30.0616 31.4303 29.6467 32.9549 29.6695C33.9344 29.6467 34.8045 29.8442 35.5884 30.2579C36.3279 30.65 36.7229 31.4115 36.7229 32.5005ZM18.5836 29.6049C19.2808 29.6049 19.9122 29.7999 20.5219 30.1929C21.0666 30.5635 21.5023 31.0856 21.8069 31.6951H24.1797C23.8315 30.4326 23.1562 29.3863 22.1328 28.5821C21.089 27.7532 19.891 27.3395 18.5836 27.361C16.952 27.3395 15.6003 27.9055 14.4686 29.0811C13.315 30.2359 12.75 31.6074 12.75 33.2413C12.75 34.8525 13.315 36.2702 14.4686 37.4239C15.6003 38.5551 16.952 39.1228 18.5836 39.1228C19.891 39.1228 21.089 38.7299 22.1328 37.9237C23.1562 37.0959 23.8315 36.0732 24.1797 34.8098H21.8069C21.5023 35.4201 21.0666 35.9191 20.5219 36.3121C19.9122 36.6839 19.2808 36.8793 18.5836 36.8793C17.5829 36.8793 16.7344 36.5088 16.036 35.8102C15.3192 35.0926 14.9702 34.245 14.9914 33.2413C14.9702 32.2405 15.3192 31.39 16.036 30.6724C16.7344 29.9751 17.5829 29.6049 18.5836 29.6049ZM50.8966 34.4612C50.8738 33.7431 50.6346 33.1539 50.1762 32.6753C49.6762 32.1755 49.0888 31.9345 48.3916 31.9568C47.7172 31.9345 47.129 32.1755 46.6506 32.6753C46.171 33.1539 45.909 33.7431 45.909 34.4612C45.909 35.1361 46.171 35.7245 46.6506 36.2259C47.129 36.7282 47.7172 36.9651 48.3916 36.9651C49.0888 36.9651 49.6762 36.7282 50.155 36.2259C50.6346 35.7245 50.8738 35.1361 50.8966 34.4612ZM51.7439 31.0856C52.6588 32.0231 53.116 33.1539 53.116 34.4612C53.116 35.768 52.6588 36.9001 51.7439 37.8152C50.8079 38.7526 49.6759 39.2305 48.3913 39.2305C47.1071 39.2305 45.9953 38.7526 45.0821 37.8152C44.1445 36.9001 43.6885 35.768 43.6885 34.4612C43.6885 33.1539 44.1445 32.0231 45.0821 31.0856C45.9953 30.1498 47.1071 29.6906 48.3913 29.6906C49.6759 29.6906 50.8079 30.1498 51.7439 31.0856ZM54.5116 34.3303H60.5006V32.3051H54.5116V34.3303ZM47.6521 27.8612H49.6771V22.0001H47.6521V27.8612ZM58.9761 24.5718L53.5086 30.0392L52.0723 28.6012L57.5382 23.1354L58.9761 24.5718Z" fill="#DA291C"/>
</svg>
