<svg width="72" height="72" viewBox="0 0 72 72" fill="none" xmlns="http://www.w3.org/2000/svg">
<circle cx="36" cy="36" r="35" fill="white" stroke="#DBDBDB" stroke-width="2"/>
<path d="M45.8306 42.6457H50.3126C51.3706 40.9622 52.5644 39.4337 53.9384 37.9941C55.2896 39.4337 56.4156 40.9622 57.4736 42.6457H62C60.446 40.3195 58.7571 38.1045 56.7297 35.9118C58.7344 33.8073 60.446 31.636 62 29.3552H57.5633C56.46 31.0386 55.2662 32.4559 53.9375 33.8518C52.5862 32.4559 51.3924 31.0386 50.3117 29.3552H45.8297C47.3611 31.7028 49.0953 33.8073 51.1218 35.9118C49.0953 38.1045 47.3611 40.3862 45.8297 42.6457" fill="#002BE7"/>
<path d="M37.025 43C38.8488 43 40.4254 42.3359 41.6418 40.8955V42.6457H45.1771V29.3543H41.6418V31.1045C40.4254 29.665 38.8488 29 37.025 29C33.3313 29 30.2685 32.123 30.2685 36C30.2685 39.877 33.3313 43 37.025 43ZM33.602 36C33.602 33.8296 35.3813 32.0793 37.588 32.0793C39.7946 32.0793 41.574 33.8296 41.574 36C41.574 38.1704 39.7946 39.9207 37.588 39.9207C35.3813 39.9207 33.602 38.1704 33.602 36ZM34.5251 36C34.5251 37.6835 35.8991 39.0348 37.588 39.0348C39.2769 39.0348 40.6508 37.6835 40.6508 36C40.6508 34.3165 39.2769 32.9652 37.588 32.9652C35.8991 32.9652 34.5251 34.3165 34.5251 36Z" fill="#002BE7"/>
<path d="M10 42.6457H13.7163V34.3824C15.3382 33.1201 16.0813 32.7212 16.6895 32.7212C17.4099 32.7212 17.8833 33.1646 17.8833 34.272V42.6448H21.5995V34.361C23.2214 33.1209 23.9419 32.7221 24.5727 32.7221C25.2932 32.7221 25.7665 33.1654 25.7665 34.2729V42.6457H29.4828V32.9874C29.4802 29.9971 27.7461 29 26.0798 29C24.6606 29 23.2197 29.576 21.3281 30.9933C20.7199 29.5092 19.3912 29 18.1974 29C16.7782 29 15.3373 29.6205 13.4909 31.0155V29.3543H10V42.6457Z" fill="#002BE7"/>
</svg>
