<svg width="72" height="72" viewBox="0 0 72 72" fill="none" xmlns="http://www.w3.org/2000/svg">
<circle cx="36" cy="36" r="35" fill="white" stroke="#DBDBDB" stroke-width="2"/>
<path fill-rule="evenodd" clip-rule="evenodd" d="M53.8439 47.8602C53.5215 47.8602 53.3947 47.7028 53.3947 47.398V41.9428H52.1259V47.4767C52.1259 48.2042 52.565 48.9412 53.6092 48.9412H54.3319V47.8602H53.8439ZM49.9971 45.9041C49.9873 45.678 49.9582 45.5401 49.88 45.3534C49.7434 45.0489 49.4603 44.8228 49.0307 44.8228C48.6015 44.8228 48.3183 45.0489 48.1817 45.3534C48.1036 45.5401 48.0741 45.678 48.0643 45.9041H49.9971ZM51.247 46.2087V46.7788H48.0648C48.0648 47.4375 48.465 47.9191 49.1779 47.9191C49.734 47.9191 50.0077 47.7618 50.3294 47.4375L51.1009 48.1943C50.5834 48.7151 50.0855 49.0001 49.1678 49.0001C47.9671 49.0001 46.8153 48.4497 46.8153 46.3759C46.8153 44.7047 47.7134 43.7612 49.0312 43.7612C50.4467 43.7612 51.247 44.8031 51.247 46.2087ZM44.2967 46.9852L43.262 43.8201H41.9246L43.7988 48.9412H44.7946L46.6593 43.8201H45.3219L44.2967 46.9852ZM41.0069 41.3335H39.6695L39.0448 43.0044H39.8941L41.0069 41.3335ZM40.46 46.3759C40.46 45.8449 40.4308 45.4028 40.1673 45.1372C40.0209 44.9897 39.8257 44.9111 39.5717 44.9111C39.318 44.9111 39.1323 44.9897 38.9862 45.1372C38.7224 45.4028 38.6933 45.8449 38.6933 46.3759C38.6933 46.9066 38.7224 47.3588 38.9862 47.6242C39.1323 47.7716 39.318 47.8503 39.5717 47.8503C39.8257 47.8503 40.0209 47.7716 40.1673 47.6242C40.4308 47.3588 40.46 46.9066 40.46 46.3759ZM41.1538 44.3903C41.6125 44.8719 41.7299 45.4519 41.7299 46.3759C41.7299 47.3098 41.6125 47.8895 41.1538 48.3711C40.8416 48.7055 40.3241 49.0002 39.5722 49.0002C38.8206 49.0002 38.3132 48.7055 38.0007 48.3711C37.5417 47.8895 37.4247 47.3098 37.4247 46.3759C37.4247 45.4519 37.5417 44.8719 38.0007 44.3903C38.3132 44.0562 38.8206 43.7612 39.5722 43.7612C40.3241 43.7612 40.8416 44.0562 41.1538 44.3903ZM35.9603 44.2135C36.3702 44.6263 36.5167 45.1079 36.5167 45.6682V48.9412H35.2476V45.8449C35.2476 45.1471 34.8082 44.911 34.4081 44.911C34.0177 44.911 33.5588 45.1471 33.5588 45.8156V48.9412H32.2897V45.8449C32.2897 45.1471 31.8506 44.911 31.4501 44.911C31.05 44.911 30.6011 45.1471 30.6011 45.8449V48.9412H29.332V43.8201H30.5717V44.2922C30.9035 43.9479 31.372 43.7612 31.8408 43.7612C32.407 43.7612 32.8657 43.9676 33.188 44.41C33.6173 43.9577 34.0759 43.7612 34.7108 43.7612C35.2185 43.7612 35.6772 43.9284 35.9603 44.2135Z" fill="black"/>
<path fill-rule="evenodd" clip-rule="evenodd" d="M41.1768 33.5186L40.5243 33.6997C40.0702 33.8805 39.6639 34.193 39.3208 34.6684V33.7975L37.711 33.7821V40.6185H39.3863V37.3484C39.3863 36.7887 39.4521 36.3954 39.5987 36.1478C39.7112 35.8858 39.9233 35.6718 40.1842 35.4913C40.4764 35.2933 40.7852 35.1945 41.1113 35.1945L41.6309 35.2287L41.6153 33.4851L41.1768 33.5186ZM28.0675 40.6184H29.7592V31.7114H28.0675V40.6184ZM34.8003 37.1352L34.476 37.3139L33.63 37.5279C33.2719 37.5775 32.9958 37.6596 32.8331 37.758C32.5575 37.9391 32.4259 38.1863 32.4259 38.5311C32.4259 38.8432 32.5088 39.056 32.6703 39.2051C32.8331 39.3352 33.0284 39.4013 33.2719 39.4013C33.6623 39.4013 34.004 39.2857 34.3295 39.056C34.6376 38.8263 34.8003 38.4148 34.8003 37.8247V37.1352ZM36.5738 35.589V40.6185H34.8812V39.9112C34.3603 40.3712 33.6292 40.6012 32.703 40.6185C32.1322 40.6012 31.6607 40.4383 31.3191 40.1415C30.9299 39.7802 30.7352 39.2857 30.751 38.6802C30.7352 37.8071 31.0433 37.2001 31.6769 36.8222C32.052 36.6072 32.5394 36.4602 33.1407 36.3772L34.4423 36.165C34.702 36.0503 34.8324 35.8679 34.8324 35.6388C34.816 35.3596 34.7343 35.1619 34.5398 35.0632C34.3448 34.9478 34.0687 34.8814 33.7112 34.8986C33.2876 34.8814 32.995 34.9973 32.8161 35.2286C32.703 35.3596 32.6043 35.557 32.5729 35.8529H30.8805C30.9299 35.2286 31.0762 34.7341 31.3685 34.3568C31.8241 33.7488 32.621 33.4358 33.7596 33.453C34.4911 33.4358 35.1411 33.5846 35.7269 33.8967C36.2791 34.1929 36.5738 34.767 36.5738 35.589ZM23.0252 33.4042C23.546 33.4042 24.0175 33.5515 24.4728 33.8476C24.88 34.1274 25.2052 34.5214 25.4328 34.9811H27.2051C26.9451 34.0284 26.4407 33.239 25.6763 32.6326C24.8968 32.0068 24.0017 31.695 23.0252 31.7113C21.8064 31.695 20.7968 32.1221 19.9513 33.009C19.0898 33.8805 18.668 34.915 18.668 36.1478C18.668 37.3635 19.0898 38.433 19.9513 39.3033C20.7968 40.1569 21.8064 40.5853 23.0252 40.5853C24.0017 40.5853 24.8968 40.2892 25.6763 39.6806C26.4407 39.056 26.9451 38.2845 27.2051 37.3309H25.4328C25.2052 37.7915 24.88 38.1682 24.4728 38.4647C24.0175 38.7451 23.546 38.8927 23.0252 38.8927C22.2776 38.8927 21.6437 38.6132 21.1222 38.0861C20.5871 37.5446 20.3262 36.9053 20.342 36.1478C20.3262 35.3926 20.5871 34.7508 21.1222 34.2096C21.6437 33.6834 22.2776 33.4042 23.0252 33.4042ZM47.1612 37.0679C47.1441 36.5264 46.9655 36.0817 46.6229 35.721C46.2496 35.3437 45.8107 35.1619 45.2902 35.1789C44.7864 35.1619 44.347 35.3437 43.9895 35.721C43.6314 36.0817 43.4357 36.5264 43.4357 37.0679C43.4357 37.5775 43.6314 38.0212 43.9895 38.3998C44.347 38.7787 44.7864 38.9576 45.2902 38.9576C45.8107 38.9576 46.2496 38.7787 46.6071 38.3998C46.9655 38.0212 47.1441 37.5775 47.1612 37.0679ZM47.7947 34.5214C48.4777 35.2287 48.8193 36.0817 48.8193 37.0679C48.8193 38.0541 48.4777 38.9081 47.7947 39.5985C47.0953 40.3061 46.2495 40.6665 45.2901 40.6665C44.3311 40.6665 43.5006 40.3061 42.8185 39.5985C42.1178 38.9081 41.7774 38.0541 41.7774 37.0679C41.7774 36.0817 42.1178 35.2287 42.8185 34.5214C43.5006 33.8153 44.3311 33.4687 45.2901 33.4687C46.2495 33.4687 47.0953 33.8153 47.7947 34.5214ZM49.8613 36.9695H54.3346V35.4415H49.8613V36.9695ZM44.7376 32.0886H46.2501V27.6665H44.7376V32.0886ZM53.196 29.6066L49.1124 33.732L48.0393 32.6471L52.122 28.5229L53.196 29.6066Z" fill="#DA291C"/>
<path fill-rule="evenodd" clip-rule="evenodd" d="M40.0739 28.1451H39.076C38.6209 28.1451 38.3691 28.3591 38.3691 28.719C38.3691 29.0689 38.6014 29.3024 39.0952 29.3024C39.4442 29.3024 39.6668 29.2731 39.89 29.0594C40.0253 28.9327 40.0739 28.7285 40.0739 28.4174V28.1451ZM41.3333 26.9487V30.2848H40.1032V29.847C39.7639 30.1874 39.4443 30.3333 38.8633 30.3333C38.2917 30.3333 37.8752 30.1874 37.5745 29.8861C37.3036 29.604 37.1582 29.1953 37.1582 28.7483C37.1582 27.9409 37.7104 27.2793 38.8825 27.2793H40.074V27.0266C40.074 26.4722 39.8025 26.2292 39.1342 26.2292C38.6499 26.2292 38.427 26.3455 38.1655 26.6474L37.3616 25.8595C37.8554 25.3149 38.34 25.1592 39.1825 25.1592C40.5969 25.1592 41.3333 25.7621 41.3333 26.9487ZM34.717 25.1592C34.2713 25.1592 33.8453 25.3341 33.506 25.6843V23.3596H32.247V30.2848H33.506V27.1921C33.506 26.5305 33.9229 26.297 34.3196 26.297C34.717 26.297 35.1433 26.5208 35.1433 27.1921V30.2848H36.4026V27.0071C36.4026 25.9374 35.8213 25.1592 34.717 25.1592ZM29.4277 25.1592C28.9628 25.1592 28.4979 25.3341 28.1686 25.6843V25.2175H26.9385V30.2848H28.1975V27.221C28.1975 26.5305 28.6432 26.2969 29.0403 26.2969C29.4377 26.2969 29.8734 26.5305 29.8734 27.221V30.2848H31.1327V27.0458C31.1327 26.4917 31.026 26.0149 30.6192 25.6067C30.3383 25.3246 29.9318 25.1592 29.4277 25.1592ZM24.5166 30.2846H25.7759V25.2173H24.5166V30.2846ZM25.1467 23C24.711 23 24.3525 23.3502 24.3525 23.7879C24.3525 24.2254 24.711 24.5853 25.1467 24.5853C25.5827 24.5853 25.9314 24.2254 25.9314 23.7879C25.9314 23.3502 25.5827 23 25.1467 23ZM21.9209 23.3596H23.248V30.2848H21.9014V26.2484L20.584 28.8747H19.6734L18.3466 26.2484V30.2848H17V23.3596H18.3274L20.1289 27.1044L21.9209 23.3596Z" fill="black"/>
</svg>
