<svg width="72" height="72" viewBox="0 0 72 72" fill="none" xmlns="http://www.w3.org/2000/svg">
<circle cx="36" cy="36" r="35" fill="black" stroke="#DBDBDB" stroke-width="2"/>
<path d="M46.0342 31.2285C43.3466 31.2285 41.168 33.3646 41.168 35.9998C41.168 38.6351 43.3466 40.7712 46.0342 40.7712C48.7219 40.7712 50.9005 38.6351 50.9005 35.9998C50.9005 33.3646 48.7219 31.2285 46.0342 31.2285ZM46.0342 38.1913C44.7998 38.1913 43.7992 37.2102 43.7992 35.9998C43.7992 34.7895 44.7998 33.8084 46.0342 33.8084C47.2687 33.8084 48.2693 34.7895 48.2693 35.9998C48.2693 37.2102 47.2687 38.1913 46.0342 38.1913Z" fill="white"/>
<path d="M40.5009 33.8678V31.4094H38.2338V29L35.5052 30.081V31.4094H33.8262V33.8678H35.5052V37.0394C35.5052 38.1371 35.8364 39.0413 36.4639 39.6536C37.0918 40.2668 38.019 40.5906 39.1461 40.5906H40.5009V38.1322H39.5697C38.6455 38.1322 38.2338 37.7281 38.2338 36.8224V33.8678H40.5009Z" fill="white"/>
<path d="M30.0483 32.4848V36.5116C30.0483 37.4398 29.281 38.1922 28.3343 38.1922C27.3876 38.1922 26.6203 37.4398 26.6203 36.5116V31.5106L23.9102 32.5842V36.4342C23.9102 38.8299 25.8909 40.7721 28.3343 40.7721C30.7777 40.7721 32.7585 38.8299 32.7585 36.4342V31.4111L30.0483 32.4848Z" fill="white"/>
<path d="M20.0078 30.081V40.5906H22.7364V29L20.0078 30.081Z" fill="white"/>
<path d="M14.4093 31.2295C13.2693 31.2295 12.3021 31.6071 11.5833 32.3277L11.2066 31.4337L9 32.3081V43.0003H11.7281V39.843C12.438 40.4709 13.3567 40.7712 14.4093 40.7712C15.6557 40.7712 16.8062 40.2745 17.649 39.3727C18.4778 38.4857 18.9344 37.291 18.9344 36.0096C18.9344 33.3293 16.9471 31.23 14.4098 31.23L14.4093 31.2295ZM13.9922 38.1913C12.7383 38.1913 11.7216 37.2102 11.7216 35.9998C11.7216 34.7895 12.7383 33.8084 13.9922 33.8084C15.2461 33.8084 16.2627 34.7895 16.2627 35.9998C16.2627 37.2102 15.2461 38.1913 13.9922 38.1913Z" fill="white"/>
<path d="M57.1319 31.2285C54.4442 31.2285 52.2656 33.3646 52.2656 35.9998C52.2656 38.6351 54.4442 40.7712 57.1319 40.7712C59.8196 40.7712 61.9982 38.6351 61.9982 35.9998C61.9982 33.3646 59.8196 31.2285 57.1319 31.2285ZM59.0537 38.3304H58.1465L56.8476 35.2504H55.5453V36.8394C55.5453 37.1818 55.7136 37.3939 56.1108 37.3939H56.6868V38.3299H55.9789C55.0182 38.3299 54.5042 37.797 54.5042 36.907V35.2499H53.7858V34.3545H54.5042V33.7183L55.5458 33.3058V34.355H57.596L58.6006 36.9276L59.6147 34.3305H60.7408L59.0542 38.3304H59.0537Z" fill="white"/>
</svg>
