<svg width="72" height="72" viewBox="0 0 72 72" fill="none" xmlns="http://www.w3.org/2000/svg">
<circle cx="36" cy="36" r="35" fill="white" stroke="#DBDBDB" stroke-width="2"/>
<path d="M20.2699 29.2584C20.9702 28.3787 21.4448 27.2038 21.3233 26C20.2988 26.0521 19.0429 26.6771 18.3195 27.5569C17.6655 28.3092 17.0925 29.5362 17.243 30.6879C18.3947 30.7863 19.5465 30.1092 20.2757 29.2584" fill="#292723"/>
<path d="M21.312 30.9136C19.6394 30.8152 18.2156 31.8628 17.4112 31.8628C16.6067 31.8628 15.3855 30.9599 14.0602 30.9889C12.3355 31.012 10.7381 31.9901 9.85837 33.5412C8.05843 36.6433 9.38379 41.2445 11.1316 43.7679C11.9824 45.018 13.0068 46.3954 14.3553 46.3433C15.6286 46.2912 16.1321 45.5157 17.6774 45.5157C19.2227 45.5157 19.6741 46.3433 21.0284 46.3144C22.429 46.2912 23.3029 45.0643 24.1537 43.8142C25.126 42.3904 25.5254 41.013 25.5543 40.9377C25.5312 40.9146 22.8573 39.8844 22.8284 36.8112C22.8052 34.2357 24.9292 33.0087 25.0276 32.9335C23.8296 31.1567 21.9544 30.9599 21.3062 30.9078" fill="#292723"/>
<path d="M31.978 28.5407V31.938H34.7098V34.1778H31.978V42.1647C31.978 43.4032 32.5221 43.9704 33.7143 43.9704C34.0153 43.9704 34.5014 43.9299 34.6924 43.901V46.1581C34.3683 46.2276 33.7143 46.2797 33.0719 46.2797C30.2476 46.2797 29.1479 45.1916 29.1479 42.4483V34.172H27.0586V31.9322H29.1479V28.5349H31.9723L31.978 28.5407Z" fill="#292723"/>
<path d="M44.2654 46.1755H41.2675L36.2207 31.9438H39.2071L42.7491 43.3801H42.8128L46.3548 31.9438H49.2833L44.2654 46.1755Z" fill="#292723"/>
<path d="M57.4438 46.1755H54.8509V40.3416H49.2891V37.7777H54.8509V31.9438H57.4438V37.7777H62.9999V40.3416H57.4438V46.1755Z" fill="#292723"/>
</svg>
