<svg width="72" height="72" viewBox="0 0 72 72" fill="none" xmlns="http://www.w3.org/2000/svg">
<circle cx="36" cy="36" r="35" fill="white" stroke="#DBDBDB" stroke-width="2"/>
<path fill-rule="evenodd" clip-rule="evenodd" d="M58.3015 47.6367H56.955C56.3415 47.6367 56.0019 47.9248 56.0019 48.4094C56.0019 48.8807 56.3148 49.1951 56.9813 49.1951C57.4517 49.1951 57.7519 49.1557 58.0534 48.8676C58.2359 48.6974 58.3015 48.4225 58.3015 48.0033V47.6367ZM59.9999 46.0261V50.5173H58.3409V49.9283C57.8832 50.3861 57.4517 50.5826 56.6684 50.5826C55.8969 50.5826 55.3354 50.3861 54.9298 49.9805C54.5639 49.6008 54.3683 49.0509 54.3683 48.4488C54.3683 47.3618 55.1127 46.4716 56.6938 46.4716H58.3015V46.1309C58.3015 45.3846 57.9353 45.0574 57.0334 45.0574C56.3804 45.0574 56.0794 45.2144 55.7271 45.6205L54.6423 44.5597C55.3088 43.8266 55.9625 43.617 57.099 43.617C59.0066 43.617 59.9999 44.4286 59.9999 46.0261ZM51.6626 45.1487C52.1064 45.1487 52.4078 45.3061 52.7602 45.6858L53.9106 44.5334C53.3089 43.9051 52.6031 43.617 51.6626 43.617C50.3034 43.617 48.6182 44.337 48.6182 47.1C48.6182 49.8626 50.3034 50.5958 51.6626 50.5958C52.6031 50.5958 53.3089 50.2949 53.9106 49.6661L52.7602 48.5273C52.4078 48.9066 52.1064 49.064 51.6626 49.064C51.2574 49.064 50.9445 48.9198 50.6959 48.619C50.4338 48.2914 50.317 47.82 50.317 47.1C50.317 46.3795 50.4338 45.9213 50.6959 45.5942C50.9445 45.2929 51.2574 45.1487 51.6626 45.1487ZM46.5404 40.7101C45.9527 40.7101 45.4695 41.1815 45.4695 41.7708C45.4695 42.3598 45.9527 42.8443 46.5404 42.8443C47.1285 42.8443 47.5994 42.3598 47.5994 41.7708C47.5994 41.1815 47.1285 40.7101 46.5404 40.7101ZM45.6914 50.5173H47.3906V43.6955H45.6914V50.5173ZM42.569 46.3668L41.4969 46.262C40.8961 46.2094 40.7915 45.9213 40.7915 45.6727C40.7915 45.3324 41.079 45.018 41.7582 45.018C42.3463 45.018 42.9476 45.1228 43.3397 45.4762L44.3847 44.4155C43.7314 43.8002 42.843 43.617 41.7849 43.617C40.3998 43.617 39.1579 44.3764 39.1579 45.7906C39.1579 47.0474 39.9159 47.5845 41.1446 47.7021L42.2155 47.8069C42.7516 47.8595 42.9341 48.095 42.9341 48.4352C42.9341 48.9461 42.3205 49.1425 41.7328 49.1425C41.2094 49.1425 40.4782 49.064 39.9159 48.501L38.8056 49.6139C39.6673 50.4782 40.6344 50.5957 41.7061 50.5957C43.313 50.5957 44.5939 49.8757 44.5939 48.3699C44.5939 47.2175 43.9147 46.4975 42.569 46.3668ZM36.9621 40.383H35.1722L34.3359 42.6088H35.4728L36.9621 40.383ZM36.1913 47.82C36.1913 48.7496 35.5905 49.064 35.0544 49.064C34.5188 49.064 33.9306 48.7496 33.9306 47.82V43.6954H32.2314V48.0559C32.2314 48.8018 32.3758 49.4434 32.9246 49.9937C33.3035 50.3734 33.8523 50.5957 34.5315 50.5957C35.1586 50.5957 35.7861 50.3603 36.2303 49.8889V50.5172H37.8901V43.6954H36.1913V47.82ZM30.0635 44.2194C30.6123 44.7689 30.8087 45.4109 30.8087 46.1572V50.5173H29.1095V46.3927C29.1095 45.4631 28.5218 45.1487 27.9858 45.1487C27.4637 45.1487 26.8489 45.4631 26.8489 46.3536V50.5173H25.1501V46.3927C25.1501 45.4631 24.5619 45.1487 24.0263 45.1487C23.4911 45.1487 22.8894 45.4631 22.8894 46.3927V50.5173H21.1914V43.6955H22.85V44.3238C23.2946 43.8656 23.9221 43.617 24.5492 43.617C25.3071 43.617 25.9215 43.8919 26.3526 44.4812C26.9276 43.8787 27.5412 43.617 28.391 43.617C29.0706 43.617 29.685 43.8397 30.0635 44.2194Z" fill="black"/>
<path fill-rule="evenodd" clip-rule="evenodd" d="M42.2919 29.8155L41.4144 30.0575C40.8031 30.299 40.256 30.7163 39.7947 31.3509V30.1881L37.6279 30.1676V39.2978H39.8822V34.9303C39.8822 34.183 39.971 33.6573 40.1685 33.3269C40.3202 32.9772 40.6048 32.6914 40.956 32.4503C41.3494 32.1862 41.7648 32.0539 42.204 32.0539L42.9032 32.0994L42.8824 29.7709L42.2919 29.8155ZM24.6495 39.297H26.9263V27.4018H24.6495V39.297ZM33.7112 34.6453L33.2741 34.8844L32.1357 35.1702C31.6536 35.2361 31.2823 35.3459 31.0627 35.4773C30.6923 35.7189 30.5156 36.0497 30.5156 36.5099C30.5156 36.9267 30.6268 37.2109 30.844 37.4099C31.0627 37.5839 31.3261 37.6723 31.6536 37.6723C32.1795 37.6723 32.6387 37.518 33.077 37.2109C33.4917 36.9038 33.7112 36.3547 33.7112 35.5662V34.6453ZM36.0985 32.5809V39.2974H33.8201V38.3528C33.1192 38.9674 32.1354 39.2749 30.8887 39.2974C30.1207 39.2749 29.4869 39.0567 29.0269 38.6607C28.5027 38.178 28.2406 37.518 28.2618 36.7089C28.2406 35.5432 28.6552 34.7321 29.5082 34.2277C30.0132 33.9406 30.6687 33.7445 31.4779 33.6336L33.2297 33.3498C33.5789 33.1967 33.7547 32.9531 33.7547 32.6472C33.7322 32.2742 33.623 32.0105 33.3609 31.8787C33.0988 31.7243 32.7267 31.6355 32.2458 31.6588C31.6758 31.6355 31.282 31.7907 31.0416 32.0994C30.8887 32.2742 30.7562 32.5383 30.7136 32.933H28.4364C28.5027 32.0994 28.6998 31.4389 29.0931 30.9349C29.7057 30.123 30.7783 29.7049 32.3108 29.7279C33.2955 29.7049 34.1701 29.9039 34.9581 30.3207C35.7019 30.7159 36.0985 31.4832 36.0985 32.5809ZM17.8641 29.6628C18.5654 29.6628 19.1996 29.8593 19.8126 30.2552C20.3605 30.6286 20.7981 31.1548 21.1043 31.769H23.4899C23.1399 30.4968 22.4611 29.4425 21.4319 28.6322C20.383 27.7969 19.1784 27.3801 17.8641 27.4018C16.224 27.3801 14.8652 27.9505 13.728 29.135C12.5684 30.2986 12 31.6805 12 33.3269C12 34.9503 12.5684 36.3789 13.728 37.5413C14.8652 38.6812 16.224 39.2532 17.8641 39.2532C19.1784 39.2532 20.383 38.8573 21.4319 38.0449C22.4611 37.2109 23.1399 36.1803 23.4899 34.9073H21.1043C20.7981 35.5223 20.3605 36.0251 19.8126 36.4211C19.1996 36.7957 18.5654 36.9927 17.8641 36.9927C16.8582 36.9927 16.0052 36.6192 15.3036 35.9154C14.5831 35.1923 14.2318 34.3386 14.2535 33.3269C14.2318 32.3184 14.5831 31.4615 15.3036 30.7384C16.0052 30.0358 16.8582 29.6628 17.8641 29.6628ZM50.3461 34.556C50.3232 33.8326 50.0828 33.2389 49.6219 32.7565C49.1194 32.2529 48.5289 32.0105 47.8285 32.033C47.1505 32.0105 46.5588 32.2529 46.0779 32.7565C45.5954 33.2389 45.3329 33.8326 45.3329 34.556C45.3329 35.2361 45.5954 35.829 46.0779 36.3343C46.5588 36.8403 47.1505 37.079 47.8285 37.079C48.5289 37.079 49.1194 36.8403 49.6007 36.3343C50.0828 35.829 50.3232 35.2361 50.3461 34.556ZM51.1987 31.1548C52.1179 32.0994 52.5779 33.2389 52.5779 34.556C52.5779 35.8728 52.1179 37.0135 51.1987 37.9356C50.2578 38.8802 49.1194 39.3617 47.8285 39.3617C46.5371 39.3617 45.4196 38.8802 44.5016 37.9356C43.5591 37.0135 43.1007 35.8728 43.1007 34.556C43.1007 33.2389 43.5591 32.0994 44.5016 31.1548C45.4196 30.2118 46.5371 29.7492 47.8285 29.7492C49.1194 29.7492 50.2578 30.2118 51.1987 31.1548ZM53.9805 34.4242H60V32.3831H53.9805V34.4242ZM47.085 27.9058H49.1209V22H47.085V27.9058ZM58.4679 24.5914L52.9722 30.1005L51.5283 28.6519L57.0224 23.144L58.4679 24.5914Z" fill="#DA291C"/>
</svg>
