<svg width="70" height="70" viewBox="0 0 70 70" fill="none" xmlns="http://www.w3.org/2000/svg">
<path d="M68.75 34.875C68.75 53.5836 53.5836 68.75 34.875 68.75C16.1664 68.75 1 53.5836 1 34.875C1 16.1664 16.1664 1 34.875 1C53.5836 1 68.75 16.1664 68.75 34.875Z" fill="white" stroke="#DBDBDB" stroke-width="2"/>
<path fill-rule="evenodd" clip-rule="evenodd" d="M41.0096 28.6542L40.1366 28.895C39.5286 29.1353 38.9844 29.5502 38.5254 30.1815V29.0248L36.3703 29.0045V38.0864H38.6129V33.7419C38.6129 32.9985 38.7009 32.4756 38.8977 32.1471C39.0485 31.7993 39.3313 31.5149 39.6807 31.275C40.0725 31.0122 40.4858 30.8808 40.9225 30.8808L41.6178 30.926L41.5971 28.6097L41.0096 28.6542ZM23.4587 38.086H25.7233V26.2537H23.4587V38.086ZM32.4729 33.4584L32.0382 33.6962L30.9057 33.9806C30.426 34.0461 30.057 34.1552 29.8386 34.286C29.4698 34.5263 29.2941 34.8554 29.2941 35.3131C29.2941 35.7278 29.4043 36.0104 29.621 36.2084C29.8386 36.3812 30.1002 36.4694 30.426 36.4694C30.9492 36.4694 31.4064 36.3159 31.8424 36.0104C32.2548 35.7055 32.4729 35.1587 32.4729 34.3748V33.4584ZM34.8482 31.4048V38.0864H32.582V37.1464C31.8843 37.7577 30.9057 38.0635 29.6653 38.0864C28.9019 38.0635 28.271 37.8468 27.8133 37.4526C27.2922 36.9725 27.031 36.3159 27.0522 35.5111C27.031 34.3517 27.4439 33.5448 28.2926 33.0431C28.7946 32.7575 29.4466 32.5625 30.2514 32.452L31.9943 32.1698C32.3419 32.0175 32.5165 31.7752 32.5165 31.471C32.4945 31.1 32.3856 30.8376 32.1248 30.7064C31.864 30.553 31.4943 30.465 31.0155 30.4877C30.4481 30.465 30.057 30.6189 29.8174 30.926C29.6653 31.1 29.5337 31.3625 29.4916 31.7552H27.2259C27.2922 30.926 27.4882 30.269 27.8793 29.7677C28.489 28.96 29.556 28.5442 31.0806 28.5674C32.06 28.5442 32.9303 28.7422 33.714 29.1569C34.4535 29.5502 34.8482 30.3129 34.8482 31.4048ZM16.709 28.5023C17.4067 28.5023 18.0372 28.6976 18.6473 29.0916C19.192 29.4631 19.6273 29.9864 19.9324 30.5973H22.3051C21.9568 29.3319 21.2817 28.2832 20.2578 27.4772C19.2144 26.6463 18.0164 26.2316 16.709 26.2532C15.077 26.2316 13.7257 26.7991 12.594 27.9772C11.4404 29.1353 10.875 30.5093 10.875 32.1471C10.875 33.7619 11.4404 35.1828 12.594 36.3391C13.7257 37.4733 15.077 38.0419 16.709 38.0419C18.0164 38.0419 19.2144 37.6481 20.2578 36.8402C21.2817 36.0104 21.9568 34.9853 22.3051 33.7192H19.9324C19.6273 34.3307 19.192 34.8309 18.6473 35.2249C18.0372 35.5975 17.4067 35.7935 16.709 35.7935C15.708 35.7935 14.8594 35.4224 14.1614 34.7218C13.4446 34.0025 13.0956 33.1533 13.1168 32.1471C13.0956 31.1438 13.4446 30.2915 14.1614 29.5722C14.8594 28.8734 15.708 28.5023 16.709 28.5023ZM49.0216 33.3698C48.9989 32.6504 48.7597 32.0594 48.3012 31.5801C47.8012 31.0788 47.2142 30.8376 46.5171 30.8599C45.8421 30.8376 45.2544 31.0788 44.7761 31.5801C44.2959 32.0594 44.0345 32.6504 44.0345 33.3698C44.0345 34.0461 44.2959 34.6358 44.7761 35.1385C45.2544 35.6423 45.8421 35.8796 46.5171 35.8796C47.2142 35.8796 47.8012 35.6423 48.2805 35.1385C48.7597 34.6358 48.9989 34.0461 49.0216 33.3698ZM49.8696 29.9864C50.7845 30.926 51.2421 32.0594 51.2421 33.3698C51.2421 34.6795 50.7845 35.8142 49.8696 36.7313C48.9336 37.6709 47.8012 38.1499 46.5171 38.1499C45.2328 38.1499 44.1211 37.6709 43.2074 36.7313C42.2703 35.8142 41.8142 34.6795 41.8142 33.3698C41.8142 32.0594 42.2703 30.926 43.2074 29.9864C44.1211 29.0484 45.2328 28.5883 46.5171 28.5883C47.8012 28.5883 48.9336 29.0484 49.8696 29.9864ZM52.6371 33.2386H58.6257V31.2082H52.6371V33.2386ZM45.7776 26.7545H47.8026V20.88H45.7776V26.7545ZM57.1018 23.4576L51.6343 28.9377L50.1979 27.4966L55.6634 22.0178L57.1018 23.4576Z" fill="#DA291C"/>
<path d="M45.6523 48.875V47.375H45.0114C44.5886 47.375 44.3977 47.1432 44.3977 46.7341V43.325H45.6523V41.975H44.3977V39.875H42.625V41.975H41.875V43.325H42.625V46.8432C42.625 47.8523 43.2386 48.875 44.6841 48.875H45.6523Z" fill="black"/>
<path d="M52.502 41.7705H50.6338L49.202 46.1614L47.7565 41.7705H45.8884L48.5065 48.875H49.8974L52.502 41.7705Z" fill="black"/>
<path d="M58.8554 45.9295V44.2659H56.6735V42.0841H55.0099V44.2659H52.8145V45.9295H55.0099V48.1114H56.6735V45.9295H58.8554Z" fill="black"/>
</svg>
