<svg width="72" height="72" viewBox="0 0 72 72" fill="none" xmlns="http://www.w3.org/2000/svg">
<circle cx="36" cy="36" r="35" fill="white" stroke="#DBDBDB" stroke-width="2"/>
<path fill-rule="evenodd" clip-rule="evenodd" d="M58.3105 48.0611C58.3105 48.4709 58.2456 48.7393 58.0638 48.9061C57.7645 49.1878 57.466 49.2259 56.9983 49.2259C56.3357 49.2259 56.0242 48.919 56.0242 48.4581C56.0242 47.9843 56.3618 47.7027 56.9722 47.7027H58.3105V48.0611ZM57.1149 43.7725C55.985 43.7725 55.3355 43.977 54.6729 44.6943L55.7514 45.7314C56.1017 45.3344 56.4005 45.1809 57.0501 45.1809C57.9464 45.1809 58.3105 45.5007 58.3105 46.2304V46.5631H56.7125C55.1406 46.5631 54.3997 47.4339 54.3997 48.4962C54.3997 49.0853 54.595 49.6229 54.9583 49.9942C55.3616 50.3908 55.9202 50.5829 56.6864 50.5829C57.466 50.5829 57.8946 50.3908 58.3492 49.9432V50.519H59.9994V46.128C59.9994 44.5661 59.0118 43.7725 57.1149 43.7725ZM50.7494 45.7057C50.4893 46.0255 50.3727 46.4735 50.3727 47.1779C50.3727 47.8819 50.4893 48.3428 50.7494 48.663C50.9965 48.9571 51.3081 49.0982 51.7105 49.0982C52.1521 49.0982 52.4514 48.9443 52.8021 48.573L53.945 49.6868C53.3477 50.3016 52.6459 50.5957 51.7105 50.5957C50.3596 50.5957 48.6837 49.8789 48.6837 47.1779C48.6837 44.4765 50.3596 43.7725 51.7105 43.7725C52.6459 43.7725 53.3477 44.0542 53.945 44.6686L52.8021 45.7953C52.4514 45.424 52.1521 45.2701 51.7105 45.2701C51.3081 45.2701 50.9965 45.4111 50.7494 45.7057ZM46.839 44.3612C47.3846 44.8988 47.5277 45.5264 47.5277 46.2561V50.519H45.8388V46.4864C45.8388 45.5775 45.2541 45.2701 44.7215 45.2701C44.189 45.2701 43.5912 45.5775 43.5912 46.4864V50.519H41.9027V43.8493H43.5525V44.4636C43.9941 44.0028 44.6176 43.7725 45.241 43.7725C45.9167 43.7725 46.4623 43.9903 46.839 44.3612ZM38.7197 48.0611C38.7197 48.4709 38.6549 48.7393 38.473 48.9061C38.1737 49.1878 37.8753 49.2259 37.4076 49.2259C36.745 49.2259 36.4334 48.919 36.4334 48.4581C36.4334 47.9843 36.7711 47.7027 37.3815 47.7027H38.7197V48.0611ZM37.5242 43.7725C36.3943 43.7725 35.7447 43.977 35.0821 44.6943L36.1606 45.7314C36.5109 45.3344 36.8098 45.1809 37.4594 45.1809C38.3556 45.1809 38.7197 45.5007 38.7197 46.2304V46.5631H37.1217C35.5498 46.5631 34.8089 47.4339 34.8089 48.4962C34.8089 49.0853 35.0042 49.6229 35.3676 49.9942C35.7708 50.3908 36.3295 50.5829 37.0956 50.5829C37.8753 50.5829 38.3042 50.3908 38.7585 49.9432V50.519H40.4087V46.128C40.4087 44.5661 39.4211 43.7725 37.5242 43.7725ZM31.1717 49.0982C30.1584 49.0982 30.0288 48.266 30.0288 47.1779C30.0288 46.0894 30.1584 45.2701 31.1717 45.2701C32.1854 45.2701 32.3151 46.0894 32.3151 47.1779C32.3151 48.266 32.1854 49.0982 31.1717 49.0982ZM31.6655 43.7725C30.9768 43.7725 30.4704 43.9517 30.0288 44.4379V41.4042H28.3398V50.519H29.9766V49.8917C30.4443 50.4041 30.9507 50.5957 31.6655 50.5957C32.3281 50.5957 32.9385 50.3655 33.3153 49.9942C33.991 49.3284 34.004 48.1764 34.004 47.1779C34.004 46.179 33.991 45.0398 33.3153 44.374C32.9385 44.0028 32.3281 43.7725 31.6655 43.7725Z" fill="black"/>
<path fill-rule="evenodd" clip-rule="evenodd" d="M42.292 29.8155L41.4145 30.0575C40.8032 30.299 40.2561 30.7163 39.7948 31.3509V30.1881L37.6285 30.1676V39.2978H39.8827V34.9303C39.8827 34.183 39.9711 33.6573 40.169 33.3269C40.3207 32.9772 40.6049 32.6914 40.9561 32.4503C41.3499 32.1858 41.7653 32.0539 42.2045 32.0539L42.9033 32.0994L42.8825 29.7709L42.292 29.8155ZM24.6494 39.297H26.9258V27.4018H24.6494V39.297ZM33.7108 34.6453L33.2736 34.8844L32.1352 35.1702C31.6531 35.2361 31.2823 35.3459 31.0627 35.4773C30.6918 35.7189 30.5152 36.0497 30.5152 36.5099C30.5152 36.9267 30.626 37.2109 30.8439 37.4099C31.0627 37.5835 31.3256 37.6719 31.6531 37.6719C32.179 37.6719 32.6386 37.518 33.077 37.2109C33.4916 36.9038 33.7108 36.3547 33.7108 35.5661V34.6453ZM36.0983 32.5805V39.2974H33.8203V38.3528C33.1191 38.9674 32.1352 39.2749 30.8885 39.2974C30.121 39.2749 29.4868 39.0567 29.0268 38.6607C28.503 38.178 28.2404 37.518 28.2617 36.7085C28.2404 35.5432 28.6555 34.7321 29.5084 34.2273C30.013 33.9406 30.6685 33.7445 31.4777 33.6336L33.2295 33.3498C33.5791 33.1967 33.7545 32.9531 33.7545 32.6472C33.7324 32.2742 33.6228 32.0101 33.3607 31.8787C33.0986 31.7243 32.7269 31.6355 32.2456 31.6588C31.6752 31.6355 31.2823 31.7907 31.0414 32.0994C30.8885 32.2742 30.756 32.5383 30.7139 32.933H28.4363C28.503 32.0994 28.7 31.4389 29.093 30.9349C29.7059 30.123 30.7785 29.7049 32.3111 29.7279C33.2957 29.7049 34.1704 29.9039 34.9583 30.3207C35.7017 30.7159 36.0983 31.4832 36.0983 32.5805ZM17.8645 29.6628C18.5658 29.6628 19.1996 29.8593 19.8129 30.2552C20.3604 30.6286 20.798 31.1548 21.1047 31.769H23.4898C23.1398 30.4968 22.461 29.4425 21.4318 28.6322C20.3829 27.7969 19.1787 27.3801 17.8645 27.4018C16.224 27.3801 14.8656 27.9505 13.728 29.135C12.5684 30.2986 12 31.6805 12 33.3269C12 34.9503 12.5684 36.3789 13.728 37.5409C14.8656 38.6812 16.224 39.2532 17.8645 39.2532C19.1787 39.2532 20.3829 38.8573 21.4318 38.0449C22.461 37.2109 23.1398 36.1803 23.4898 34.9073H21.1047C20.798 35.5223 20.3604 36.0251 19.8129 36.4211C19.1996 36.7957 18.5658 36.9927 17.8645 36.9927C16.8582 36.9927 16.0052 36.6192 15.3035 35.9154C14.583 35.1919 14.2322 34.3382 14.2535 33.3269C14.2322 32.3184 14.583 31.4615 15.3035 30.7384C16.0052 30.0358 16.8582 29.6628 17.8645 29.6628ZM50.3458 34.556C50.3229 33.8326 50.0824 33.2389 49.6216 32.7565C49.1191 32.2529 48.529 32.0101 47.8282 32.0326C47.1498 32.0101 46.5589 32.2529 46.078 32.7565C45.5955 33.2389 45.3326 33.8326 45.3326 34.556C45.3326 35.2361 45.5955 35.829 46.078 36.3343C46.5589 36.8403 47.1498 37.079 47.8282 37.079C48.529 37.079 49.1191 36.8403 49.6008 36.3343C50.0824 35.829 50.3229 35.2361 50.3458 34.556ZM51.1983 31.1548C52.118 32.0994 52.578 33.2389 52.578 34.556C52.578 35.8728 52.118 37.0135 51.1983 37.9356C50.2575 38.8802 49.1191 39.3617 47.8282 39.3617C46.5373 39.3617 45.4197 38.8802 44.5013 37.9356C43.5592 37.0135 43.1008 35.8728 43.1008 34.556C43.1008 33.2389 43.5592 32.0994 44.5013 31.1548C45.4197 30.2118 46.5373 29.7492 47.8282 29.7492C49.1191 29.7492 50.2575 30.2118 51.1983 31.1548ZM53.9801 34.4242H60V32.3835H53.9801V34.4242ZM47.0848 27.9058H49.1203V22H47.0848V27.9058ZM58.4682 24.5914L52.9722 30.1005L51.5283 28.6514L57.0224 23.144L58.4682 24.5914Z" fill="#DA291C"/>
</svg>
