<svg width="72" height="72" viewBox="0 0 72 72" fill="none" xmlns="http://www.w3.org/2000/svg">
<path d="M69.875 36C69.875 54.7086 54.7086 69.875 36 69.875C17.2914 69.875 2.125 54.7086 2.125 36C2.125 17.2914 17.2914 2.125 36 2.125C54.7086 2.125 69.875 17.2914 69.875 36Z" fill="white" stroke="#DBDBDB" stroke-width="2"/>
<path d="M43.8377 45.2518V44.0716H42.6933V43.3921C42.6933 43.0346 42.8602 42.8319 43.2297 42.8319H43.8377V41.5208H42.9557C41.6921 41.5208 41.1437 42.4147 41.1437 43.297V44.0716H40.5V45.2518H41.1437V50.1034H42.6933V45.2518H43.8377Z" fill="black"/>
<path d="M46.3952 42.1405C46.3952 41.6041 45.9659 41.175 45.4295 41.175C44.8931 41.175 44.4521 41.6041 44.4521 42.1405C44.4521 42.6769 44.8931 43.1181 45.4295 43.1181C45.9659 43.1181 46.3952 42.6769 46.3952 42.1405ZM46.2044 50.1034V43.8928H44.6548V50.1034H46.2044Z" fill="black"/>
<path d="M52.834 50.1034L50.6884 46.9325L52.7506 43.8928H50.8909L49.8301 45.6691L48.7811 43.8928H46.9215L48.9838 46.9325L46.838 50.1034H48.6976L49.8301 48.2438L50.9744 50.1034H52.834Z" fill="black"/>
<path d="M58.2408 46.9921C58.2408 45.8716 58.0977 45.1683 57.5375 44.5842C57.1561 44.179 56.5243 43.8212 55.6063 43.8212C54.6885 43.8212 54.0686 44.179 53.6872 44.5842C53.1268 45.1683 52.9839 45.8716 52.9839 46.9921C52.9839 48.1246 53.1268 48.8279 53.6872 49.412C54.0686 49.8172 54.6885 50.175 55.6063 50.175C56.5243 50.175 57.1561 49.8172 57.5375 49.412C58.0977 48.8279 58.2408 48.1246 58.2408 46.9921ZM56.6912 46.9921C56.6912 47.6359 56.6554 48.1842 56.3335 48.5062C56.1546 48.6848 55.9163 48.7802 55.6063 48.7802C55.2964 48.7802 55.0699 48.6848 54.8912 48.5062C54.5692 48.1842 54.5335 47.6359 54.5335 46.9921C54.5335 46.3484 54.5692 45.812 54.8912 45.4903C55.0699 45.3114 55.2964 45.216 55.6063 45.216C55.9163 45.216 56.1546 45.3114 56.3335 45.4903C56.6554 45.812 56.6912 46.3484 56.6912 46.9921Z" fill="black"/>
<path fill-rule="evenodd" clip-rule="evenodd" d="M41.3846 29.7793L40.5116 30.02C39.9036 30.2603 39.3594 30.6752 38.9004 31.3066V30.1498L36.7453 30.1296V39.2115H38.9879V34.867C38.9879 34.1236 39.0759 33.6007 39.2727 33.2722C39.4235 32.9243 39.7063 32.6399 40.0557 32.4001C40.4475 32.1373 40.8608 32.0059 41.2975 32.0059L41.9928 32.0511L41.9721 29.7347L41.3846 29.7793ZM23.8337 39.211H26.0983V27.3787H23.8337V39.211ZM32.8479 34.5835L32.4132 34.8213L31.2807 35.1057C30.801 35.1712 30.432 35.2803 30.2136 35.411C29.8448 35.6513 29.6691 35.9805 29.6691 36.4381C29.6691 36.8528 29.7793 37.1354 29.996 37.3334C30.2136 37.5062 30.4752 37.5944 30.801 37.5944C31.3242 37.5944 31.7814 37.441 32.2174 37.1354C32.6298 36.8305 32.8479 36.2838 32.8479 35.4999V34.5835ZM35.2232 32.5299V39.2115H32.957V38.2714C32.2593 38.8828 31.2807 39.1885 30.0403 39.2115C29.2769 39.1885 28.646 38.9719 28.1883 38.5777C27.6672 38.0975 27.406 37.441 27.4272 36.6361C27.406 35.4767 27.8189 34.6699 28.6676 34.1681C29.1696 33.8826 29.8216 33.6875 30.6264 33.577L32.3693 33.2949C32.7169 33.1426 32.8915 32.9002 32.8915 32.596C32.8695 32.225 32.7606 31.9627 32.4998 31.8315C32.239 31.678 31.8693 31.5901 31.3905 31.6128C30.8231 31.5901 30.432 31.744 30.1924 32.0511C30.0403 32.225 29.9087 32.4876 29.8666 32.8802H27.6009C27.6672 32.0511 27.8632 31.3941 28.2543 30.8928C28.864 30.085 29.931 29.6692 31.4556 29.6924C32.435 29.6692 33.3053 29.8672 34.089 30.2819C34.8285 30.6752 35.2232 31.438 35.2232 32.5299ZM17.084 29.6274C17.7817 29.6274 18.4122 29.8227 19.0223 30.2167C19.567 30.5881 20.0023 31.1115 20.3074 31.7224H22.6801C22.3318 30.457 21.6567 29.4082 20.6328 28.6023C19.5894 27.7714 18.3914 27.3567 17.084 27.3783C15.452 27.3567 14.1007 27.9241 12.969 29.1022C11.8154 30.2603 11.25 31.6344 11.25 33.2722C11.25 34.887 11.8154 36.3079 12.969 37.4641C14.1007 38.5984 15.452 39.1669 17.084 39.1669C18.3914 39.1669 19.5894 38.7732 20.6328 37.9652C21.6567 37.1354 22.3318 36.1103 22.6801 34.8442H20.3074C20.0023 35.4558 19.567 35.956 19.0223 36.3499C18.4122 36.7225 17.7817 36.9185 17.084 36.9185C16.083 36.9185 15.2344 36.5475 14.5364 35.8468C13.8196 35.1275 13.4706 34.2784 13.4918 33.2722C13.4706 32.2689 13.8196 31.4166 14.5364 30.6973C15.2344 29.9984 16.083 29.6274 17.084 29.6274ZM49.3966 34.4948C49.3739 33.7755 49.1347 33.1844 48.6762 32.7052C48.1762 32.2039 47.5892 31.9627 46.8921 31.9849C46.2171 31.9627 45.6294 32.2039 45.1511 32.7052C44.6709 33.1844 44.4095 33.7755 44.4095 34.4948C44.4095 35.1712 44.6709 35.7609 45.1511 36.2635C45.6294 36.7673 46.2171 37.0047 46.8921 37.0047C47.5892 37.0047 48.1762 36.7673 48.6555 36.2635C49.1347 35.7609 49.3739 35.1712 49.3966 34.4948ZM50.2446 31.1115C51.1595 32.0511 51.6171 33.1844 51.6171 34.4948C51.6171 35.8045 51.1595 36.9392 50.2446 37.8563C49.3086 38.7959 48.1762 39.2749 46.8921 39.2749C45.6078 39.2749 44.4961 38.7959 43.5824 37.8563C42.6453 36.9392 42.1892 35.8045 42.1892 34.4948C42.1892 33.1844 42.6453 32.0511 43.5824 31.1115C44.4961 30.1735 45.6078 29.7133 46.8921 29.7133C48.1762 29.7133 49.3086 30.1735 50.2446 31.1115ZM53.0121 34.3636H59.0007V32.3332H53.0121V34.3636ZM46.1526 27.8796H48.1776V22.0051H46.1526V27.8796ZM57.4768 24.5827L52.0093 30.0628L50.5729 28.6216L56.0384 23.1429L57.4768 24.5827Z" fill="#DA291C"/>
</svg>
