<svg width="73" height="73" viewBox="0 0 73 73" fill="none" xmlns="http://www.w3.org/2000/svg">
<path d="M71.125 36.125C71.125 55.455 55.455 71.125 36.125 71.125C16.795 71.125 1.125 55.455 1.125 36.125C1.125 16.795 16.795 1.125 36.125 1.125C55.455 1.125 71.125 16.795 71.125 36.125Z" fill="white" stroke="#DBDBDB" stroke-width="2"/>
<path d="M19.6931 41.1405C19.6931 40.6041 19.2639 40.175 18.7275 40.175C18.1911 40.175 17.75 40.6041 17.75 41.1405C17.75 41.6769 18.1911 42.1181 18.7275 42.1181C19.2639 42.1181 19.6931 41.6769 19.6931 41.1405ZM19.5023 49.1034V42.8928H17.9527V49.1034H19.5023Z" fill="black"/>
<path d="M26.0246 49.1034V45.134C26.0246 44.4545 25.8934 43.8704 25.3928 43.3698C25.0472 43.0239 24.5466 42.8212 23.9267 42.8212C23.3545 42.8212 22.7821 43.0359 22.3769 43.4649V42.8928H20.8629V49.1034H22.4127V45.3484C22.4127 44.5022 22.961 44.216 23.4497 44.216C23.9386 44.216 24.475 44.5022 24.475 45.3484V49.1034H26.0246Z" fill="black"/>
<path d="M30.1131 49.1034V47.7921H29.5528C29.1831 47.7921 29.0164 47.5896 29.0164 47.2319V44.2518H30.1131V43.0716H29.0164V41.2359H27.4666V43.0716H26.811V44.2518H27.4666V47.3273C27.4666 48.2095 28.003 49.1034 29.2666 49.1034H30.1131Z" fill="black"/>
<path d="M36.2092 46.4808V45.7896C36.2092 44.0848 35.2318 42.8212 33.5034 42.8212C31.8939 42.8212 30.7973 43.9658 30.7973 45.9921C30.7973 48.5074 32.204 49.175 33.6703 49.175C34.7908 49.175 35.3988 48.8294 36.0306 48.1976L35.0887 47.2796C34.6954 47.6729 34.3615 47.8637 33.6822 47.8637C32.8119 47.8637 32.3233 47.2796 32.3233 46.4808H36.2092ZM34.6835 45.42H32.3233C32.3352 45.1459 32.3709 44.979 32.4663 44.7524C32.6331 44.3829 32.9789 44.1087 33.5034 44.1087C34.0278 44.1087 34.3735 44.3829 34.5404 44.7524C34.6358 44.979 34.6716 45.1459 34.6835 45.42Z" fill="black"/>
<path d="M41.807 43.4055C41.3779 42.9762 40.9488 42.8212 40.3409 42.8212C39.6733 42.8212 39.0773 43.1313 38.7792 43.4888V42.8928H37.2654V49.1034H38.8149V45.3603C38.8149 44.5737 39.3394 44.216 39.8164 44.216C40.1978 44.216 40.4005 44.3472 40.6388 44.5857L41.807 43.4055Z" fill="black"/>
<path d="M47.479 49.1034V45.134C47.479 44.4545 47.3481 43.8704 46.8472 43.3698C46.5016 43.0239 46.001 42.8212 45.3811 42.8212C44.809 42.8212 44.2368 43.0359 43.8313 43.4649V42.8928H42.3175V49.1034H43.8671V45.3484C43.8671 44.5022 44.4154 44.216 44.9044 44.216C45.393 44.216 45.9295 44.5022 45.9295 45.3484V49.1034H47.479Z" fill="black"/>
<path d="M53.8805 46.4808V45.7896C53.8805 44.0848 52.9029 42.8212 51.1744 42.8212C49.5652 42.8212 48.4683 43.9658 48.4683 45.9921C48.4683 48.5074 49.875 49.175 51.3414 49.175C52.4619 49.175 53.0698 48.8294 53.7016 48.1976L52.7598 47.2796C52.3665 47.6729 52.0328 47.8637 51.3533 47.8637C50.483 47.8637 49.9943 47.2796 49.9943 46.4808H53.8805ZM52.3546 45.42H49.9943C50.0062 45.1459 50.042 44.979 50.1374 44.7524C50.3041 44.3829 50.65 44.1087 51.1744 44.1087C51.6989 44.1087 52.0447 44.3829 52.2114 44.7524C52.3069 44.979 52.3426 45.1459 52.3546 45.42Z" fill="black"/>
<path d="M57.726 49.1034V47.7921H57.1655C56.7961 47.7921 56.6291 47.5896 56.6291 47.2319V44.2518H57.726V43.0716H56.6291V41.2359H55.0795V43.0716H54.4239V44.2518H55.0795V47.3273C55.0795 48.2095 55.6159 49.1034 56.8795 49.1034H57.726Z" fill="black"/>
<path fill-rule="evenodd" clip-rule="evenodd" d="M41.1346 28.7793L40.2616 29.02C39.6536 29.2603 39.1094 29.6752 38.6504 30.3066V29.1498L36.4953 29.1296V38.2115H38.7379V33.867C38.7379 33.1236 38.8259 32.6007 39.0227 32.2722C39.1735 31.9243 39.4563 31.6399 39.8057 31.4001C40.1975 31.1373 40.6108 31.0059 41.0475 31.0059L41.7428 31.0511L41.7221 28.7347L41.1346 28.7793ZM23.5837 38.211H25.8483V26.3787H23.5837V38.211ZM32.5979 33.5835L32.1632 33.8213L31.0307 34.1057C30.551 34.1712 30.182 34.2803 29.9636 34.411C29.5948 34.6513 29.4191 34.9805 29.4191 35.4381C29.4191 35.8528 29.5293 36.1354 29.746 36.3334C29.9636 36.5062 30.2252 36.5944 30.551 36.5944C31.0742 36.5944 31.5314 36.441 31.9674 36.1354C32.3798 35.8305 32.5979 35.2838 32.5979 34.4999V33.5835ZM34.9732 31.5299V38.2115H32.707V37.2714C32.0093 37.8828 31.0307 38.1885 29.7903 38.2115C29.0269 38.1885 28.396 37.9719 27.9383 37.5777C27.4172 37.0975 27.156 36.441 27.1772 35.6361C27.156 34.4767 27.5689 33.6699 28.4176 33.1681C28.9196 32.8826 29.5716 32.6875 30.3764 32.577L32.1193 32.2949C32.4669 32.1426 32.6415 31.9002 32.6415 31.596C32.6195 31.225 32.5106 30.9627 32.2498 30.8315C31.989 30.678 31.6193 30.5901 31.1405 30.6128C30.5731 30.5901 30.182 30.744 29.9424 31.0511C29.7903 31.225 29.6587 31.4876 29.6166 31.8802H27.3509C27.4172 31.0511 27.6132 30.3941 28.0043 29.8928C28.614 29.085 29.681 28.6692 31.2056 28.6924C32.185 28.6692 33.0553 28.8672 33.839 29.2819C34.5785 29.6752 34.9732 30.438 34.9732 31.5299ZM16.834 28.6274C17.5317 28.6274 18.1622 28.8227 18.7723 29.2167C19.317 29.5881 19.7523 30.1115 20.0574 30.7224H22.4301C22.0818 29.457 21.4067 28.4082 20.3828 27.6023C19.3394 26.7714 18.1414 26.3567 16.834 26.3783C15.202 26.3567 13.8507 26.9241 12.719 28.1022C11.5654 29.2603 11 30.6344 11 32.2722C11 33.887 11.5654 35.3079 12.719 36.4641C13.8507 37.5984 15.202 38.1669 16.834 38.1669C18.1414 38.1669 19.3394 37.7732 20.3828 36.9652C21.4067 36.1354 22.0818 35.1103 22.4301 33.8442H20.0574C19.7523 34.4558 19.317 34.956 18.7723 35.3499C18.1622 35.7225 17.5317 35.9185 16.834 35.9185C15.833 35.9185 14.9844 35.5475 14.2864 34.8468C13.5696 34.1275 13.2206 33.2784 13.2418 32.2722C13.2206 31.2689 13.5696 30.4166 14.2864 29.6973C14.9844 28.9984 15.833 28.6274 16.834 28.6274ZM49.1466 33.4948C49.1239 32.7755 48.8847 32.1844 48.4262 31.7052C47.9262 31.2039 47.3392 30.9627 46.6421 30.9849C45.9671 30.9627 45.3794 31.2039 44.9011 31.7052C44.4209 32.1844 44.1595 32.7755 44.1595 33.4948C44.1595 34.1712 44.4209 34.7609 44.9011 35.2635C45.3794 35.7673 45.9671 36.0047 46.6421 36.0047C47.3392 36.0047 47.9262 35.7673 48.4055 35.2635C48.8847 34.7609 49.1239 34.1712 49.1466 33.4948ZM49.9946 30.1115C50.9095 31.0511 51.3671 32.1844 51.3671 33.4948C51.3671 34.8045 50.9095 35.9392 49.9946 36.8563C49.0586 37.7959 47.9262 38.2749 46.6421 38.2749C45.3578 38.2749 44.2461 37.7959 43.3324 36.8563C42.3953 35.9392 41.9392 34.8045 41.9392 33.4948C41.9392 32.1844 42.3953 31.0511 43.3324 30.1115C44.2461 29.1735 45.3578 28.7133 46.6421 28.7133C47.9262 28.7133 49.0586 29.1735 49.9946 30.1115ZM52.7621 33.3636H58.7507V31.3332H52.7621V33.3636ZM45.9026 26.8796H47.9276V21.0051H45.9026V26.8796ZM57.2268 23.5827L51.7593 29.0628L50.3229 27.6216L55.7884 22.1429L57.2268 23.5827Z" fill="#DA291C"/>
</svg>
