<svg width="72" height="72" viewBox="0 0 72 72" fill="none" xmlns="http://www.w3.org/2000/svg">
<circle cx="36" cy="36" r="35" fill="white" stroke="#DBDBDB" stroke-width="2"/>
<path fill-rule="evenodd" clip-rule="evenodd" d="M12 55.5613V45.3301L16.4201 48.6678L20.8375 45.3301L20.8315 55.5666L18.5934 55.5654V49.7135L16.4181 51.3327L14.2454 49.7135L14.2421 55.5626L12 55.5613ZM51.4924 51.9927V52.5022L45.8799 52.4995C46.0767 53.2378 46.8282 53.8027 47.6758 53.8033C48.254 53.804 48.7782 53.5713 49.2096 53.1298L50.8922 54.0474C50.0279 55.0258 48.9109 55.5685 47.7199 55.5813H47.7185H47.7172C45.1196 55.5799 43.7192 53.606 43.7199 51.7494C43.7212 49.8927 45.1244 47.9201 47.7212 47.9214C49.2883 47.9221 51.4943 49.1858 51.4924 51.9927ZM54.3148 52.5042L59.9273 52.5076V51.9974C59.9293 49.1905 57.7233 47.9268 56.1561 47.9261C53.5586 47.9247 52.1562 49.8974 52.1555 51.754C52.1542 53.6112 53.5546 55.5845 56.1521 55.5865H56.1535H56.1548C57.3458 55.5732 58.4629 55.0303 59.3271 54.0521L57.6446 53.1344C57.2124 53.5759 56.689 53.8086 56.1108 53.808C55.2632 53.8073 54.5116 53.2431 54.3148 52.5042ZM55.958 49.7047C56.7177 49.7053 57.3098 50.1042 57.6239 50.8117L54.3569 50.8097C54.6263 50.1115 55.2072 49.704 55.958 49.7047ZM47.5231 49.7C48.282 49.7 48.8748 50.0994 49.189 50.8069L45.9219 50.805C46.1913 50.1068 46.7722 49.6993 47.5231 49.7ZM42.4744 47.3802C42.7391 47.3809 42.8992 47.4256 43.0593 47.4943L43.2887 47.5929L44.1463 45.7216L43.8989 45.621C43.5154 45.4636 42.9813 45.407 42.6091 45.407C41.6735 45.4063 40.9019 45.7123 40.3778 46.2912C39.9202 46.7967 39.6682 47.4996 39.6675 48.2705L39.6668 49.0874L38.7559 49.0867L38.7552 51.0047L39.6661 51.0054L39.6635 55.5769L41.7269 55.5782L41.7294 51.0067L43.0752 51.0073L43.0759 49.0895L41.7301 49.0888L41.7308 48.1825C41.7308 47.793 41.9915 47.3802 42.4744 47.3802ZM34.4779 45.39L38.6899 55.5766L36.3285 55.5753L35.6316 53.8361L32.1032 53.8348L31.4043 55.5726L29.0529 55.5713L32.9387 46.7391L32.3799 45.3887L34.4779 45.39ZM34.8347 51.7967L33.883 49.4073L32.918 51.7961L34.8347 51.7967ZM29.0045 53.807L29.1378 53.5962L27.4373 52.5859L27.3106 52.7839C26.9231 53.3928 26.3937 53.7016 25.7368 53.7009C24.6117 53.7002 23.7641 52.8519 23.7648 51.727C23.7655 50.6019 24.6144 49.7543 25.7387 49.755C26.405 49.7557 26.9051 50.0477 27.3133 50.6759L27.44 50.8706L29.1492 49.8583L29.0011 49.6443C28.1849 48.4619 27.1179 47.887 25.7401 47.8863C23.1346 47.8851 21.7281 49.863 21.7275 51.7256C21.7262 53.5875 23.1307 55.5682 25.7355 55.5689C27.0632 55.5702 28.3156 54.8946 29.0045 53.807Z" fill="#C31E25"/>
<path fill-rule="evenodd" clip-rule="evenodd" d="M42.5932 32.7824V22.275L35.9648 25.3404V20.2705L47.1968 15.0762V35.7207L35.9648 40.9191V35.8492L42.5932 32.7824Z" fill="#6C1317"/>
<path fill-rule="evenodd" clip-rule="evenodd" d="M29.334 32.7824V22.275L35.9624 25.3404V20.2705L24.7305 15.0762V35.7207L35.9624 40.9191V35.8492L29.334 32.7824Z" fill="#C31E25"/>
</svg>
