<svg width="72" height="72" viewBox="0 0 72 72" fill="none" xmlns="http://www.w3.org/2000/svg">
<circle cx="36" cy="36" r="35" fill="black" stroke="#DBDBDB" stroke-width="2"/>
<path fill-rule="evenodd" clip-rule="evenodd" d="M27.0835 18.4557C26.9979 18.4199 26.1756 18.0738 26.0575 18.0239C26.0543 18.0225 26.0473 18.0196 26.039 18.016C26.0254 18.0104 26.0307 18.0128 26.0242 18.0101C26.01 18.0042 26.0053 18.0021 26.0002 18C26.0002 18.2685 26.0001 18.6661 26 19.0913C26 19.6351 26 20.2125 26 20.4994C26 21.0527 26 22.4764 26 23.0024C26 24.0178 26 31.8443 26 32.3915C26 32.9244 26 53.4064 26 53.9708C28.7021 53.6336 30.0535 53.5024 32.8023 53.3724C32.8023 52.8248 32.8023 47.394 32.8023 46.602C32.8023 42.0296 32.8023 38.8118 32.8023 37.038C32.8023 36.2916 32.8023 36.015 32.8023 35.2492C32.5941 34.6381 31.7134 32.0441 31.4879 31.3909C31.0667 30.145 28.6695 23.113 28.4779 22.5505C28.3061 22.0457 27.8276 20.6426 27.6755 20.1936C27.5866 19.9338 27.3544 19.2539 27.2311 18.8913C27.1346 18.6078 27.1433 18.6311 27.0835 18.4557Z" fill="url(#paint0_linear_866_3292)"/>
<path fill-rule="evenodd" clip-rule="evenodd" d="M43.9668 53.5149C44.0524 53.5505 44.8748 53.8969 44.9928 53.9469C44.996 53.9481 45.003 53.9509 45.0114 53.9545C45.025 53.9601 45.0196 53.9577 45.0262 53.9605C45.0404 53.9665 45.0451 53.9685 45.0501 53.9705C45.0502 53.7021 45.0503 53.3045 45.0503 52.8793C45.0504 52.3353 45.0503 51.7581 45.0503 51.4713C45.0503 50.9181 45.0503 49.4941 45.0503 48.9681C45.0503 47.9529 45.0503 40.1265 45.0503 39.5792C45.0503 39.0463 45.0503 18.5644 45.0503 18C44.516 18 39.1099 18 38.248 18C38.248 18.5479 38.248 24.5767 38.248 25.3688C38.248 29.941 38.248 33.1589 38.248 34.9326C38.248 35.6791 38.248 35.9556 38.248 36.7214C38.4562 37.3326 39.337 39.9265 39.5625 40.5797C39.9836 41.8257 42.3808 48.8577 42.5725 49.4201C42.7443 49.9249 43.2228 51.3281 43.3749 51.7769C43.4638 52.0369 43.6959 52.7169 43.8193 53.0793C43.9157 53.3629 43.907 53.3397 43.9668 53.5149Z" fill="url(#paint1_linear_866_3292)"/>
<path fill-rule="evenodd" clip-rule="evenodd" d="M32.8023 18H26L38.0451 53.3725C41.4301 53.4613 45.0511 53.9709 45.0511 53.9709L32.8023 18Z" fill="#E50A15"/>
<defs>
<linearGradient id="paint0_linear_866_3292" x1="31.5492" y1="29.0149" x2="29.8434" y2="29.0325" gradientUnits="userSpaceOnUse">
<stop stop-color="#80020E"/>
<stop offset="1" stop-color="#B10610"/>
</linearGradient>
<linearGradient id="paint1_linear_866_3292" x1="40.9402" y1="27.9158" x2="38.1688" y2="27.943" gradientUnits="userSpaceOnUse">
<stop stop-color="#B10610"/>
<stop offset="1" stop-color="#80020E"/>
</linearGradient>
</defs>
</svg>
